<mxfile host="app.diagrams.net" modified="2023-04-02T08:24:18.880Z" agent="Mozilla/5.0 (Macintosh; Intel Mac OS X 10_15_7) AppleWebKit/537.36 (KHTML, like Gecko) Chrome/111.0.0.0 Safari/537.36" etag="awTk4x0TfsXa4J_6_f8Y" version="21.1.2" type="device">
  <diagram id="XBvGDhLtTTuUsavqQlDp" name="第 1 页">
    <mxGraphModel dx="1548" dy="1098" grid="0" gridSize="10" guides="1" tooltips="1" connect="1" arrows="1" fold="1" page="1" pageScale="1" pageWidth="1654" pageHeight="2336" math="0" shadow="0">
      <root>
        <mxCell id="0" />
        <mxCell id="1" parent="0" />
        <mxCell id="uWCHTQVpAAEiWSfYW0G0-1" value="" style="rounded=0;whiteSpace=wrap;html=1;" parent="1" vertex="1">
          <mxGeometry x="240" y="80" width="770" height="60" as="geometry" />
        </mxCell>
        <mxCell id="uWCHTQVpAAEiWSfYW0G0-2" value="" style="rounded=0;whiteSpace=wrap;html=1;" parent="1" vertex="1">
          <mxGeometry x="240" y="80" width="430" height="60" as="geometry" />
        </mxCell>
        <mxCell id="uWCHTQVpAAEiWSfYW0G0-3" value="" style="rounded=0;whiteSpace=wrap;html=1;" parent="1" vertex="1">
          <mxGeometry x="620" y="80" width="50" height="60" as="geometry" />
        </mxCell>
        <mxCell id="uWCHTQVpAAEiWSfYW0G0-4" value="&lt;font style=&quot;font-size: 20px;&quot; face=&quot;Lucida Console&quot;&gt;0&lt;/font&gt;" style="text;html=1;strokeColor=none;fillColor=none;align=center;verticalAlign=middle;whiteSpace=wrap;rounded=0;" parent="1" vertex="1">
          <mxGeometry x="980" y="50" width="60" height="30" as="geometry" />
        </mxCell>
        <mxCell id="uWCHTQVpAAEiWSfYW0G0-5" value="&lt;font style=&quot;font-size: 20px;&quot; face=&quot;Lucida Console&quot;&gt;7&lt;/font&gt;" style="text;html=1;strokeColor=none;fillColor=none;align=center;verticalAlign=middle;whiteSpace=wrap;rounded=0;" parent="1" vertex="1">
          <mxGeometry x="640" y="50" width="60" height="30" as="geometry" />
        </mxCell>
        <mxCell id="uWCHTQVpAAEiWSfYW0G0-6" value="&lt;font style=&quot;font-size: 20px;&quot; face=&quot;Lucida Console&quot;&gt;8&lt;/font&gt;" style="text;html=1;strokeColor=none;fillColor=none;align=center;verticalAlign=middle;whiteSpace=wrap;rounded=0;" parent="1" vertex="1">
          <mxGeometry x="590" y="50" width="60" height="30" as="geometry" />
        </mxCell>
        <mxCell id="uWCHTQVpAAEiWSfYW0G0-7" value="&lt;font style=&quot;font-size: 20px;&quot; face=&quot;Lucida Console&quot;&gt;15&lt;/font&gt;" style="text;html=1;strokeColor=none;fillColor=none;align=center;verticalAlign=middle;whiteSpace=wrap;rounded=0;" parent="1" vertex="1">
          <mxGeometry x="210" y="50" width="60" height="30" as="geometry" />
        </mxCell>
        <mxCell id="uWCHTQVpAAEiWSfYW0G0-9" value="&lt;font style=&quot;font-size: 20px;&quot; face=&quot;Lucida Console&quot;&gt;退出状态&lt;/font&gt;" style="text;html=1;strokeColor=none;fillColor=none;align=center;verticalAlign=middle;whiteSpace=wrap;rounded=0;" parent="1" vertex="1">
          <mxGeometry x="305" y="95" width="300" height="30" as="geometry" />
        </mxCell>
        <mxCell id="uWCHTQVpAAEiWSfYW0G0-10" value="&lt;font style=&quot;font-size: 20px;&quot; face=&quot;Lucida Console&quot;&gt;终止信号&lt;/font&gt;" style="text;html=1;strokeColor=none;fillColor=none;align=center;verticalAlign=middle;whiteSpace=wrap;rounded=0;" parent="1" vertex="1">
          <mxGeometry x="750" y="95" width="180" height="30" as="geometry" />
        </mxCell>
        <mxCell id="uWCHTQVpAAEiWSfYW0G0-11" value="&lt;font face=&quot;Lucida Console&quot;&gt;&lt;span style=&quot;font-size: 20px;&quot;&gt;core dump 标志位&lt;/span&gt;&lt;/font&gt;" style="text;html=1;strokeColor=none;fillColor=none;align=center;verticalAlign=middle;whiteSpace=wrap;rounded=0;" parent="1" vertex="1">
          <mxGeometry x="440" y="150" width="410" height="30" as="geometry" />
        </mxCell>
        <mxCell id="uWCHTQVpAAEiWSfYW0G0-12" value="&lt;font style=&quot;font-size: 20px;&quot; face=&quot;Lucida Console&quot;&gt;status输出型参数&lt;/font&gt;" style="text;html=1;strokeColor=none;fillColor=none;align=center;verticalAlign=middle;whiteSpace=wrap;rounded=0;" parent="1" vertex="1">
          <mxGeometry x="82" y="11" width="316" height="30" as="geometry" />
        </mxCell>
        <mxCell id="GhHSb6lFGgwrdyE7u6nT-1" value="" style="rounded=0;whiteSpace=wrap;html=1;" parent="1" vertex="1">
          <mxGeometry x="162" y="510" width="138" height="177" as="geometry" />
        </mxCell>
        <mxCell id="GhHSb6lFGgwrdyE7u6nT-32" style="rounded=0;orthogonalLoop=1;jettySize=auto;html=1;exitX=1;exitY=0.5;exitDx=0;exitDy=0;entryX=0;entryY=0;entryDx=0;entryDy=0;" parent="1" source="GhHSb6lFGgwrdyE7u6nT-2" target="GhHSb6lFGgwrdyE7u6nT-12" edge="1">
          <mxGeometry relative="1" as="geometry" />
        </mxCell>
        <mxCell id="GhHSb6lFGgwrdyE7u6nT-2" value="" style="rounded=0;whiteSpace=wrap;html=1;" parent="1" vertex="1">
          <mxGeometry x="162" y="552" width="138" height="29" as="geometry" />
        </mxCell>
        <mxCell id="GhHSb6lFGgwrdyE7u6nT-33" style="rounded=0;orthogonalLoop=1;jettySize=auto;html=1;exitX=1;exitY=0.5;exitDx=0;exitDy=0;entryX=0;entryY=0;entryDx=0;entryDy=0;" parent="1" source="GhHSb6lFGgwrdyE7u6nT-3" target="GhHSb6lFGgwrdyE7u6nT-17" edge="1">
          <mxGeometry relative="1" as="geometry" />
        </mxCell>
        <mxCell id="GhHSb6lFGgwrdyE7u6nT-3" value="" style="rounded=0;whiteSpace=wrap;html=1;" parent="1" vertex="1">
          <mxGeometry x="162" y="581" width="138" height="29" as="geometry" />
        </mxCell>
        <mxCell id="GhHSb6lFGgwrdyE7u6nT-34" style="rounded=0;orthogonalLoop=1;jettySize=auto;html=1;exitX=1;exitY=0.5;exitDx=0;exitDy=0;entryX=0;entryY=0;entryDx=0;entryDy=0;" parent="1" source="GhHSb6lFGgwrdyE7u6nT-4" target="GhHSb6lFGgwrdyE7u6nT-22" edge="1">
          <mxGeometry relative="1" as="geometry" />
        </mxCell>
        <mxCell id="GhHSb6lFGgwrdyE7u6nT-4" value="" style="rounded=0;whiteSpace=wrap;html=1;" parent="1" vertex="1">
          <mxGeometry x="162" y="610" width="138" height="29" as="geometry" />
        </mxCell>
        <mxCell id="GhHSb6lFGgwrdyE7u6nT-7" value="" style="rounded=0;whiteSpace=wrap;html=1;fontSize=20;" parent="1" vertex="1">
          <mxGeometry x="461" y="280" width="100" height="164" as="geometry" />
        </mxCell>
        <mxCell id="GhHSb6lFGgwrdyE7u6nT-8" value="&lt;font style=&quot;font-size: 20px;&quot;&gt;1&lt;/font&gt;" style="rounded=0;whiteSpace=wrap;html=1;fontSize=20;" parent="1" vertex="1">
          <mxGeometry x="461" y="309" width="100" height="29" as="geometry" />
        </mxCell>
        <mxCell id="GhHSb6lFGgwrdyE7u6nT-9" value="&lt;font style=&quot;font-size: 20px;&quot;&gt;0&lt;/font&gt;" style="rounded=0;whiteSpace=wrap;html=1;fontSize=20;" parent="1" vertex="1">
          <mxGeometry x="461" y="338" width="100" height="29" as="geometry" />
        </mxCell>
        <mxCell id="GhHSb6lFGgwrdyE7u6nT-10" value="&lt;font style=&quot;font-size: 20px;&quot;&gt;1&lt;/font&gt;" style="rounded=0;whiteSpace=wrap;html=1;fontSize=20;" parent="1" vertex="1">
          <mxGeometry x="461" y="367" width="100" height="29" as="geometry" />
        </mxCell>
        <mxCell id="GhHSb6lFGgwrdyE7u6nT-12" value="&lt;font style=&quot;font-size: 20px;&quot;&gt;0&lt;/font&gt;" style="rounded=0;whiteSpace=wrap;html=1;fontSize=20;" parent="1" vertex="1">
          <mxGeometry x="461" y="280" width="100" height="29" as="geometry" />
        </mxCell>
        <mxCell id="GhHSb6lFGgwrdyE7u6nT-13" value="" style="rounded=0;whiteSpace=wrap;html=1;fontSize=20;" parent="1" vertex="1">
          <mxGeometry x="461" y="490" width="100" height="164" as="geometry" />
        </mxCell>
        <mxCell id="GhHSb6lFGgwrdyE7u6nT-14" value="1" style="rounded=0;whiteSpace=wrap;html=1;fontSize=20;" parent="1" vertex="1">
          <mxGeometry x="461" y="519" width="100" height="29" as="geometry" />
        </mxCell>
        <mxCell id="GhHSb6lFGgwrdyE7u6nT-15" value="1" style="rounded=0;whiteSpace=wrap;html=1;fontSize=20;" parent="1" vertex="1">
          <mxGeometry x="461" y="548" width="100" height="29" as="geometry" />
        </mxCell>
        <mxCell id="GhHSb6lFGgwrdyE7u6nT-16" value="0" style="rounded=0;whiteSpace=wrap;html=1;fontSize=20;" parent="1" vertex="1">
          <mxGeometry x="461" y="577" width="100" height="29" as="geometry" />
        </mxCell>
        <mxCell id="GhHSb6lFGgwrdyE7u6nT-17" value="0" style="rounded=0;whiteSpace=wrap;html=1;fontSize=20;" parent="1" vertex="1">
          <mxGeometry x="461" y="490" width="100" height="29" as="geometry" />
        </mxCell>
        <mxCell id="GhHSb6lFGgwrdyE7u6nT-18" value="" style="rounded=0;whiteSpace=wrap;html=1;fontSize=20;" parent="1" vertex="1">
          <mxGeometry x="461" y="707" width="100" height="164" as="geometry" />
        </mxCell>
        <mxCell id="GhHSb6lFGgwrdyE7u6nT-19" value="" style="rounded=0;whiteSpace=wrap;html=1;fontSize=20;" parent="1" vertex="1">
          <mxGeometry x="461" y="736" width="100" height="29" as="geometry" />
        </mxCell>
        <mxCell id="GhHSb6lFGgwrdyE7u6nT-20" value="函数3" style="rounded=0;whiteSpace=wrap;html=1;fontSize=20;" parent="1" vertex="1">
          <mxGeometry x="461" y="765" width="100" height="29" as="geometry" />
        </mxCell>
        <mxCell id="GhHSb6lFGgwrdyE7u6nT-21" value="函数4" style="rounded=0;whiteSpace=wrap;html=1;fontSize=20;" parent="1" vertex="1">
          <mxGeometry x="461" y="794" width="100" height="29" as="geometry" />
        </mxCell>
        <mxCell id="GhHSb6lFGgwrdyE7u6nT-22" value="函数1" style="rounded=0;whiteSpace=wrap;html=1;fontSize=20;" parent="1" vertex="1">
          <mxGeometry x="461" y="707" width="100" height="29" as="geometry" />
        </mxCell>
        <mxCell id="GhHSb6lFGgwrdyE7u6nT-23" value="&lt;font style=&quot;font-size: 20px;&quot; face=&quot;Times New Roman&quot;&gt;blocked&lt;/font&gt;" style="text;html=1;align=center;verticalAlign=middle;resizable=0;points=[];autosize=1;strokeColor=none;fillColor=none;fontSize=20;" parent="1" vertex="1">
          <mxGeometry x="470.5" y="246" width="81" height="37" as="geometry" />
        </mxCell>
        <mxCell id="GhHSb6lFGgwrdyE7u6nT-24" value="&lt;font face=&quot;Times New Roman&quot; style=&quot;font-size: 20px;&quot;&gt;&lt;span style=&quot;font-size: 20px;&quot;&gt;pending&lt;/span&gt;&lt;/font&gt;" style="text;html=1;align=center;verticalAlign=middle;resizable=0;points=[];autosize=1;strokeColor=none;fillColor=none;fontSize=20;" parent="1" vertex="1">
          <mxGeometry x="470.5" y="456" width="82" height="37" as="geometry" />
        </mxCell>
        <mxCell id="GhHSb6lFGgwrdyE7u6nT-25" value="&lt;font style=&quot;font-size: 20px;&quot; face=&quot;Times New Roman&quot;&gt;handler[32]&lt;/font&gt;" style="text;html=1;align=center;verticalAlign=middle;resizable=0;points=[];autosize=1;strokeColor=none;fillColor=none;fontSize=20;" parent="1" vertex="1">
          <mxGeometry x="456.5" y="676" width="111" height="37" as="geometry" />
        </mxCell>
        <mxCell id="GhHSb6lFGgwrdyE7u6nT-26" value="&lt;font style=&quot;font-size: 20px;&quot; face=&quot;Times New Roman&quot;&gt;task_struct&lt;/font&gt;" style="text;html=1;align=center;verticalAlign=middle;resizable=0;points=[];autosize=1;strokeColor=none;fillColor=none;" parent="1" vertex="1">
          <mxGeometry x="175" y="474" width="105" height="36" as="geometry" />
        </mxCell>
        <mxCell id="GhHSb6lFGgwrdyE7u6nT-27" value="&lt;font face=&quot;Times New Roman&quot;&gt;&lt;span style=&quot;font-size: 20px;&quot;&gt;...&lt;/span&gt;&lt;/font&gt;" style="text;html=1;align=center;verticalAlign=middle;resizable=0;points=[];autosize=1;strokeColor=none;fillColor=none;" parent="1" vertex="1">
          <mxGeometry x="214.5" y="515.5" width="33" height="36" as="geometry" />
        </mxCell>
        <mxCell id="GhHSb6lFGgwrdyE7u6nT-28" value="&lt;font face=&quot;Times New Roman&quot;&gt;&lt;span style=&quot;font-size: 20px;&quot;&gt;...&lt;/span&gt;&lt;/font&gt;" style="text;html=1;align=center;verticalAlign=middle;resizable=0;points=[];autosize=1;strokeColor=none;fillColor=none;" parent="1" vertex="1">
          <mxGeometry x="214.5" y="640" width="33" height="36" as="geometry" />
        </mxCell>
        <mxCell id="GhHSb6lFGgwrdyE7u6nT-29" value="&lt;font face=&quot;Times New Roman&quot; style=&quot;font-size: 20px;&quot;&gt;&lt;span style=&quot;font-size: 20px;&quot;&gt;...&lt;/span&gt;&lt;/font&gt;" style="text;html=1;align=center;verticalAlign=middle;resizable=0;points=[];autosize=1;strokeColor=none;fillColor=none;fontSize=20;" parent="1" vertex="1">
          <mxGeometry x="494.5" y="610" width="33" height="37" as="geometry" />
        </mxCell>
        <mxCell id="GhHSb6lFGgwrdyE7u6nT-30" value="&lt;font face=&quot;Times New Roman&quot; style=&quot;font-size: 20px;&quot;&gt;&lt;span style=&quot;font-size: 20px;&quot;&gt;...&lt;/span&gt;&lt;/font&gt;" style="text;html=1;align=center;verticalAlign=middle;resizable=0;points=[];autosize=1;strokeColor=none;fillColor=none;fontSize=20;" parent="1" vertex="1">
          <mxGeometry x="493" y="401" width="33" height="37" as="geometry" />
        </mxCell>
        <mxCell id="GhHSb6lFGgwrdyE7u6nT-31" value="&lt;font face=&quot;Times New Roman&quot; style=&quot;font-size: 20px;&quot;&gt;&lt;span style=&quot;font-size: 20px;&quot;&gt;...&lt;/span&gt;&lt;/font&gt;" style="text;html=1;align=center;verticalAlign=middle;resizable=0;points=[];autosize=1;strokeColor=none;fillColor=none;fontSize=20;" parent="1" vertex="1">
          <mxGeometry x="493" y="828" width="33" height="37" as="geometry" />
        </mxCell>
        <mxCell id="GhHSb6lFGgwrdyE7u6nT-35" value="&lt;font face=&quot;Courier New&quot;&gt;SIGHUP(1)&lt;/font&gt;" style="text;html=1;align=center;verticalAlign=middle;resizable=0;points=[];autosize=1;strokeColor=none;fillColor=none;fontSize=20;labelPosition=center;verticalLabelPosition=middle;flipV=1;" parent="1" vertex="1">
          <mxGeometry x="557" y="277" width="130" height="40" as="geometry" />
        </mxCell>
        <mxCell id="GhHSb6lFGgwrdyE7u6nT-36" value="&lt;font face=&quot;Courier New&quot;&gt;SIGINT(2)&lt;/font&gt;" style="text;html=1;align=center;verticalAlign=middle;resizable=0;points=[];autosize=1;strokeColor=none;fillColor=none;fontSize=20;labelPosition=center;verticalLabelPosition=middle;flipV=1;" parent="1" vertex="1">
          <mxGeometry x="557" y="303.5" width="130" height="40" as="geometry" />
        </mxCell>
        <mxCell id="GhHSb6lFGgwrdyE7u6nT-37" value="&lt;font face=&quot;Courier New&quot;&gt;SIGQUIT(3)&lt;/font&gt;" style="text;html=1;align=center;verticalAlign=middle;resizable=0;points=[];autosize=1;strokeColor=none;fillColor=none;fontSize=20;labelPosition=center;verticalLabelPosition=middle;flipV=1;" parent="1" vertex="1">
          <mxGeometry x="557" y="332.5" width="140" height="40" as="geometry" />
        </mxCell>
        <mxCell id="GhHSb6lFGgwrdyE7u6nT-38" value="&lt;font face=&quot;Courier New&quot;&gt;SIGILL(4)&lt;/font&gt;" style="text;html=1;align=center;verticalAlign=middle;resizable=0;points=[];autosize=1;strokeColor=none;fillColor=none;fontSize=20;labelPosition=center;verticalLabelPosition=middle;flipV=1;" parent="1" vertex="1">
          <mxGeometry x="558" y="362.5" width="126" height="38" as="geometry" />
        </mxCell>
        <mxCell id="GhHSb6lFGgwrdyE7u6nT-39" value="&lt;font face=&quot;Courier New&quot;&gt;SIGHUP(1)&lt;/font&gt;" style="text;html=1;align=center;verticalAlign=middle;resizable=0;points=[];autosize=1;strokeColor=none;fillColor=none;fontSize=20;labelPosition=center;verticalLabelPosition=middle;flipV=1;" parent="1" vertex="1">
          <mxGeometry x="558" y="485.5" width="130" height="40" as="geometry" />
        </mxCell>
        <mxCell id="GhHSb6lFGgwrdyE7u6nT-40" value="&lt;font face=&quot;Courier New&quot;&gt;SIGINT(2)&lt;/font&gt;" style="text;html=1;align=center;verticalAlign=middle;resizable=0;points=[];autosize=1;strokeColor=none;fillColor=none;fontSize=20;labelPosition=center;verticalLabelPosition=middle;flipV=1;" parent="1" vertex="1">
          <mxGeometry x="558" y="512" width="130" height="40" as="geometry" />
        </mxCell>
        <mxCell id="GhHSb6lFGgwrdyE7u6nT-41" value="&lt;font face=&quot;Courier New&quot;&gt;SIGQUIT(3)&lt;/font&gt;" style="text;html=1;align=center;verticalAlign=middle;resizable=0;points=[];autosize=1;strokeColor=none;fillColor=none;fontSize=20;labelPosition=center;verticalLabelPosition=middle;flipV=1;" parent="1" vertex="1">
          <mxGeometry x="558" y="541" width="140" height="40" as="geometry" />
        </mxCell>
        <mxCell id="GhHSb6lFGgwrdyE7u6nT-42" value="&lt;font face=&quot;Courier New&quot;&gt;SIGILL(4)&lt;/font&gt;" style="text;html=1;align=center;verticalAlign=middle;resizable=0;points=[];autosize=1;strokeColor=none;fillColor=none;fontSize=20;labelPosition=center;verticalLabelPosition=middle;flipV=1;" parent="1" vertex="1">
          <mxGeometry x="556" y="570" width="130" height="40" as="geometry" />
        </mxCell>
        <mxCell id="GhHSb6lFGgwrdyE7u6nT-43" value="&lt;font face=&quot;Courier New&quot;&gt;SIGHUP(1)&lt;/font&gt;" style="text;html=1;align=center;verticalAlign=middle;resizable=0;points=[];autosize=1;strokeColor=none;fillColor=none;fontSize=20;labelPosition=center;verticalLabelPosition=middle;flipV=1;" parent="1" vertex="1">
          <mxGeometry x="558" y="703.5" width="130" height="40" as="geometry" />
        </mxCell>
        <mxCell id="GhHSb6lFGgwrdyE7u6nT-44" value="&lt;font face=&quot;Courier New&quot;&gt;SIGINT(2)&lt;/font&gt;" style="text;html=1;align=center;verticalAlign=middle;resizable=0;points=[];autosize=1;strokeColor=none;fillColor=none;fontSize=20;labelPosition=center;verticalLabelPosition=middle;flipV=1;" parent="1" vertex="1">
          <mxGeometry x="558" y="730" width="130" height="40" as="geometry" />
        </mxCell>
        <mxCell id="GhHSb6lFGgwrdyE7u6nT-45" value="&lt;font face=&quot;Courier New&quot;&gt;SIGQUIT(3)&lt;/font&gt;" style="text;html=1;align=center;verticalAlign=middle;resizable=0;points=[];autosize=1;strokeColor=none;fillColor=none;fontSize=20;labelPosition=center;verticalLabelPosition=middle;flipV=1;" parent="1" vertex="1">
          <mxGeometry x="558" y="759" width="140" height="40" as="geometry" />
        </mxCell>
        <mxCell id="GhHSb6lFGgwrdyE7u6nT-46" value="&lt;font face=&quot;Courier New&quot;&gt;SIGILL(4)&lt;/font&gt;" style="text;html=1;align=center;verticalAlign=middle;resizable=0;points=[];autosize=1;strokeColor=none;fillColor=none;fontSize=20;labelPosition=center;verticalLabelPosition=middle;flipV=1;" parent="1" vertex="1">
          <mxGeometry x="556" y="788" width="130" height="40" as="geometry" />
        </mxCell>
        <mxCell id="GhHSb6lFGgwrdyE7u6nT-47" value="&lt;font face=&quot;Times New Roman&quot; style=&quot;font-size: 20px;&quot;&gt;&lt;span style=&quot;font-size: 20px;&quot;&gt;...&lt;/span&gt;&lt;/font&gt;" style="text;html=1;align=center;verticalAlign=middle;resizable=0;points=[];autosize=1;strokeColor=none;fillColor=none;fontSize=20;" parent="1" vertex="1">
          <mxGeometry x="594" y="401.5" width="33" height="37" as="geometry" />
        </mxCell>
        <mxCell id="GhHSb6lFGgwrdyE7u6nT-48" value="&lt;font face=&quot;Times New Roman&quot; style=&quot;font-size: 20px;&quot;&gt;&lt;span style=&quot;font-size: 20px;&quot;&gt;...&lt;/span&gt;&lt;/font&gt;" style="text;html=1;align=center;verticalAlign=middle;resizable=0;points=[];autosize=1;strokeColor=none;fillColor=none;fontSize=20;" parent="1" vertex="1">
          <mxGeometry x="594" y="612" width="33" height="37" as="geometry" />
        </mxCell>
        <mxCell id="GhHSb6lFGgwrdyE7u6nT-49" value="&lt;font face=&quot;Times New Roman&quot; style=&quot;font-size: 20px;&quot;&gt;&lt;span style=&quot;font-size: 20px;&quot;&gt;...&lt;/span&gt;&lt;/font&gt;" style="text;html=1;align=center;verticalAlign=middle;resizable=0;points=[];autosize=1;strokeColor=none;fillColor=none;fontSize=20;" parent="1" vertex="1">
          <mxGeometry x="598" y="828" width="33" height="37" as="geometry" />
        </mxCell>
        <mxCell id="7F4ka3tlBxdpCrBnPQv0-3" style="edgeStyle=orthogonalEdgeStyle;rounded=0;orthogonalLoop=1;jettySize=auto;html=1;exitX=1;exitY=0.5;exitDx=0;exitDy=0;strokeColor=#B3B3B3;" edge="1" parent="1" source="7F4ka3tlBxdpCrBnPQv0-1">
          <mxGeometry relative="1" as="geometry">
            <mxPoint x="530" y="1041" as="targetPoint" />
          </mxGeometry>
        </mxCell>
        <mxCell id="7F4ka3tlBxdpCrBnPQv0-1" value="&lt;font style=&quot;font-size: 20px;&quot; face=&quot;Courier New&quot;&gt;head&lt;/font&gt;" style="rounded=0;whiteSpace=wrap;html=1;" vertex="1" parent="1">
          <mxGeometry x="309" y="1011" width="120" height="60" as="geometry" />
        </mxCell>
        <mxCell id="7F4ka3tlBxdpCrBnPQv0-7" value="&lt;font face=&quot;Courier New&quot; style=&quot;font-size: 20px;&quot;&gt;node1&lt;/font&gt;" style="rounded=0;whiteSpace=wrap;html=1;" vertex="1" parent="1">
          <mxGeometry x="532" y="1011" width="61" height="60" as="geometry" />
        </mxCell>
        <mxCell id="7F4ka3tlBxdpCrBnPQv0-8" value="" style="rounded=0;whiteSpace=wrap;html=1;" vertex="1" parent="1">
          <mxGeometry x="593" y="1011" width="61" height="60" as="geometry" />
        </mxCell>
        <mxCell id="7F4ka3tlBxdpCrBnPQv0-10" style="edgeStyle=orthogonalEdgeStyle;rounded=0;orthogonalLoop=1;jettySize=auto;html=1;exitX=1;exitY=0.5;exitDx=0;exitDy=0;" edge="1" parent="1">
          <mxGeometry relative="1" as="geometry">
            <mxPoint x="627" y="1040.5" as="sourcePoint" />
            <mxPoint x="728" y="1040.5" as="targetPoint" />
          </mxGeometry>
        </mxCell>
        <mxCell id="7F4ka3tlBxdpCrBnPQv0-20" value="&lt;font color=&quot;#ff0000&quot; style=&quot;font-size: 30px;&quot;&gt;×&lt;/font&gt;" style="text;html=1;align=center;verticalAlign=middle;resizable=0;points=[];autosize=1;strokeColor=none;fillColor=none;" vertex="1" parent="1">
          <mxGeometry x="457" y="1274" width="36" height="48" as="geometry" />
        </mxCell>
        <mxCell id="7F4ka3tlBxdpCrBnPQv0-21" style="edgeStyle=orthogonalEdgeStyle;rounded=0;orthogonalLoop=1;jettySize=auto;html=1;exitX=1;exitY=0.5;exitDx=0;exitDy=0;strokeColor=#B3B3B3;" edge="1" parent="1" source="7F4ka3tlBxdpCrBnPQv0-23">
          <mxGeometry relative="1" as="geometry">
            <mxPoint x="526" y="1292" as="targetPoint" />
          </mxGeometry>
        </mxCell>
        <mxCell id="7F4ka3tlBxdpCrBnPQv0-22" style="edgeStyle=orthogonalEdgeStyle;rounded=0;orthogonalLoop=1;jettySize=auto;html=1;exitX=1;exitY=0.5;exitDx=0;exitDy=0;entryX=0;entryY=0.5;entryDx=0;entryDy=0;curved=1;strokeColor=#FF0000;" edge="1" parent="1" source="7F4ka3tlBxdpCrBnPQv0-23" target="7F4ka3tlBxdpCrBnPQv0-27">
          <mxGeometry relative="1" as="geometry">
            <Array as="points">
              <mxPoint x="441" y="1292" />
              <mxPoint x="441" y="1374" />
              <mxPoint x="398" y="1374" />
              <mxPoint x="398" y="1455" />
            </Array>
          </mxGeometry>
        </mxCell>
        <mxCell id="7F4ka3tlBxdpCrBnPQv0-23" value="&lt;font style=&quot;font-size: 20px;&quot; face=&quot;Courier New&quot;&gt;head&lt;/font&gt;" style="rounded=0;whiteSpace=wrap;html=1;" vertex="1" parent="1">
          <mxGeometry x="305" y="1262" width="120" height="60" as="geometry" />
        </mxCell>
        <mxCell id="7F4ka3tlBxdpCrBnPQv0-24" value="&lt;font face=&quot;Courier New&quot; style=&quot;font-size: 20px;&quot;&gt;node1&lt;/font&gt;" style="rounded=0;whiteSpace=wrap;html=1;" vertex="1" parent="1">
          <mxGeometry x="528" y="1262" width="61" height="60" as="geometry" />
        </mxCell>
        <mxCell id="7F4ka3tlBxdpCrBnPQv0-25" value="" style="rounded=0;whiteSpace=wrap;html=1;" vertex="1" parent="1">
          <mxGeometry x="589" y="1262" width="61" height="60" as="geometry" />
        </mxCell>
        <mxCell id="7F4ka3tlBxdpCrBnPQv0-26" style="edgeStyle=orthogonalEdgeStyle;rounded=0;orthogonalLoop=1;jettySize=auto;html=1;exitX=1;exitY=0.5;exitDx=0;exitDy=0;" edge="1" parent="1">
          <mxGeometry relative="1" as="geometry">
            <mxPoint x="623" y="1291.5" as="sourcePoint" />
            <mxPoint x="724" y="1291.5" as="targetPoint" />
          </mxGeometry>
        </mxCell>
        <mxCell id="7F4ka3tlBxdpCrBnPQv0-27" value="&lt;font face=&quot;Courier New&quot; style=&quot;font-size: 20px;&quot;&gt;node2&lt;/font&gt;" style="rounded=0;whiteSpace=wrap;html=1;" vertex="1" parent="1">
          <mxGeometry x="418" y="1425" width="61" height="60" as="geometry" />
        </mxCell>
        <mxCell id="7F4ka3tlBxdpCrBnPQv0-28" value="" style="rounded=0;whiteSpace=wrap;html=1;" vertex="1" parent="1">
          <mxGeometry x="479" y="1425" width="61" height="60" as="geometry" />
        </mxCell>
        <mxCell id="7F4ka3tlBxdpCrBnPQv0-29" style="edgeStyle=orthogonalEdgeStyle;rounded=0;orthogonalLoop=1;jettySize=auto;html=1;exitX=1;exitY=0.5;exitDx=0;exitDy=0;entryX=0;entryY=0.5;entryDx=0;entryDy=0;curved=1;strokeColor=#FF0000;" edge="1" parent="1" target="7F4ka3tlBxdpCrBnPQv0-24">
          <mxGeometry relative="1" as="geometry">
            <mxPoint x="513" y="1454.5" as="sourcePoint" />
            <mxPoint x="614" y="1454.5" as="targetPoint" />
            <Array as="points">
              <mxPoint x="565" y="1455" />
              <mxPoint x="565" y="1388" />
              <mxPoint x="508" y="1388" />
              <mxPoint x="508" y="1292" />
            </Array>
          </mxGeometry>
        </mxCell>
        <mxCell id="7F4ka3tlBxdpCrBnPQv0-30" value="&lt;font style=&quot;font-size: 20px;&quot;&gt;①&lt;/font&gt;" style="text;html=1;align=center;verticalAlign=middle;resizable=0;points=[];autosize=1;strokeColor=none;fillColor=none;" vertex="1" parent="1">
          <mxGeometry x="504" y="1338" width="38" height="36" as="geometry" />
        </mxCell>
        <mxCell id="7F4ka3tlBxdpCrBnPQv0-32" value="&lt;font style=&quot;font-size: 20px;&quot;&gt;②&lt;/font&gt;" style="text;html=1;align=center;verticalAlign=middle;resizable=0;points=[];autosize=1;strokeColor=none;fillColor=none;" vertex="1" parent="1">
          <mxGeometry x="398" y="1338" width="38" height="36" as="geometry" />
        </mxCell>
        <mxCell id="7F4ka3tlBxdpCrBnPQv0-34" value="&lt;div style=&quot;font-size: 18px;&quot;&gt;&lt;font style=&quot;font-size: 18px;&quot; face=&quot;Courier New&quot;&gt;struct node&lt;/font&gt;&lt;/div&gt;&lt;div style=&quot;font-size: 18px;&quot;&gt;&lt;font style=&quot;font-size: 18px;&quot; face=&quot;Courier New&quot;&gt;{&lt;/font&gt;&lt;/div&gt;&lt;blockquote style=&quot;margin: 0px 0px 0px 40px; border: none; padding: 0px; font-size: 18px;&quot;&gt;&lt;div&gt;&lt;font style=&quot;font-size: 18px;&quot; face=&quot;Courier New&quot;&gt;struct node* next;&lt;/font&gt;&lt;/div&gt;&lt;div&gt;&lt;font style=&quot;font-size: 18px;&quot; face=&quot;Courier New&quot;&gt;int data;&lt;/font&gt;&lt;/div&gt;&lt;/blockquote&gt;&lt;div style=&quot;font-size: 18px;&quot;&gt;&lt;font style=&quot;font-size: 18px;&quot; face=&quot;Courier New&quot;&gt;};&lt;/font&gt;&lt;/div&gt;" style="text;html=1;align=left;verticalAlign=middle;resizable=0;points=[];autosize=1;strokeColor=none;fillColor=none;" vertex="1" parent="1">
          <mxGeometry x="1163" y="665" width="252" height="127" as="geometry" />
        </mxCell>
        <mxCell id="7F4ka3tlBxdpCrBnPQv0-35" value="&lt;div style=&quot;font-size: 18px;&quot;&gt;&lt;div&gt;&lt;font face=&quot;Courier New&quot;&gt;node2-&amp;gt;next = node1;&lt;/font&gt;&lt;/div&gt;&lt;div&gt;&lt;font face=&quot;Courier New&quot;&gt;head = node2;&lt;/font&gt;&lt;/div&gt;&lt;/div&gt;" style="text;html=1;align=left;verticalAlign=middle;resizable=0;points=[];autosize=1;strokeColor=none;fillColor=none;" vertex="1" parent="1">
          <mxGeometry x="662" y="1410" width="234" height="58" as="geometry" />
        </mxCell>
        <mxCell id="7F4ka3tlBxdpCrBnPQv0-38" value="&lt;div style=&quot;font-size: 18px;&quot;&gt;&lt;font face=&quot;Courier New&quot;&gt;struct node node2, node3, *head;&lt;/font&gt;&lt;/div&gt;&lt;div style=&quot;font-size: 18px;&quot;&gt;&lt;font face=&quot;Courier New&quot;&gt;int main()&lt;/font&gt;&lt;/div&gt;&lt;div style=&quot;font-size: 18px;&quot;&gt;&lt;font face=&quot;Courier New&quot;&gt;{&lt;/font&gt;&lt;/div&gt;&lt;div style=&quot;font-size: 18px;&quot;&gt;&lt;font face=&quot;Courier New&quot;&gt;&amp;nbsp; &amp;nbsp; ...&lt;/font&gt;&lt;/div&gt;&lt;div style=&quot;font-size: 18px;&quot;&gt;&lt;font face=&quot;Courier New&quot;&gt;&amp;nbsp; &amp;nbsp; insert(&amp;amp;node2);&lt;/font&gt;&lt;/div&gt;&lt;div style=&quot;font-size: 18px;&quot;&gt;&lt;font face=&quot;Courier New&quot;&gt;&amp;nbsp; &amp;nbsp; ...&lt;/font&gt;&lt;/div&gt;&lt;div style=&quot;font-size: 18px;&quot;&gt;&lt;font face=&quot;Courier New&quot;&gt;}&amp;nbsp;&lt;/font&gt;&lt;/div&gt;" style="text;html=1;align=left;verticalAlign=middle;resizable=0;points=[];autosize=1;strokeColor=none;fillColor=none;" vertex="1" parent="1">
          <mxGeometry x="1163" y="973" width="364" height="174" as="geometry" />
        </mxCell>
        <mxCell id="7F4ka3tlBxdpCrBnPQv0-39" value="&lt;div style=&quot;font-size: 18px;&quot;&gt;&lt;font face=&quot;Courier New&quot;&gt;void insert(struct node* newnode)&lt;/font&gt;&lt;/div&gt;&lt;div style=&quot;font-size: 18px;&quot;&gt;&lt;font face=&quot;Courier New&quot;&gt;{&lt;/font&gt;&lt;/div&gt;&lt;div style=&quot;font-size: 18px;&quot;&gt;&lt;font face=&quot;Courier New&quot;&gt;&amp;nbsp; &amp;nbsp; newnode-&amp;gt;next = head;&lt;/font&gt;&lt;/div&gt;&lt;div style=&quot;font-size: 18px;&quot;&gt;&lt;font face=&quot;Courier New&quot;&gt;&amp;nbsp; &amp;nbsp; head = newnode;&lt;/font&gt;&lt;/div&gt;&lt;div style=&quot;font-size: 18px;&quot;&gt;&lt;font face=&quot;Courier New&quot;&gt;}&lt;/font&gt;&lt;/div&gt;" style="text;html=1;align=left;verticalAlign=middle;resizable=0;points=[];autosize=1;strokeColor=none;fillColor=none;" vertex="1" parent="1">
          <mxGeometry x="1163" y="792" width="374" height="127" as="geometry" />
        </mxCell>
        <mxCell id="7F4ka3tlBxdpCrBnPQv0-40" value="&lt;div style=&quot;font-size: 18px;&quot;&gt;&lt;font face=&quot;Courier New&quot;&gt;void handler(int signum)&lt;/font&gt;&lt;/div&gt;&lt;div style=&quot;font-size: 18px;&quot;&gt;&lt;font face=&quot;Courier New&quot;&gt;{&lt;/font&gt;&lt;/div&gt;&lt;div style=&quot;font-size: 18px;&quot;&gt;&lt;font face=&quot;Courier New&quot;&gt;&amp;nbsp; &amp;nbsp; ...&lt;/font&gt;&lt;/div&gt;&lt;div style=&quot;font-size: 18px;&quot;&gt;&lt;font face=&quot;Courier New&quot;&gt;&amp;nbsp; &amp;nbsp; insert(&amp;amp;node3);&lt;/font&gt;&lt;/div&gt;&lt;div style=&quot;font-size: 18px;&quot;&gt;&lt;font face=&quot;Courier New&quot;&gt;&amp;nbsp; &amp;nbsp; ...&lt;/font&gt;&lt;/div&gt;&lt;div style=&quot;font-size: 18px;&quot;&gt;&lt;font face=&quot;Courier New&quot;&gt;}&lt;/font&gt;&lt;/div&gt;" style="text;html=1;align=left;verticalAlign=middle;resizable=0;points=[];autosize=1;strokeColor=none;fillColor=none;" vertex="1" parent="1">
          <mxGeometry x="1163" y="1152" width="277" height="151" as="geometry" />
        </mxCell>
        <mxCell id="7F4ka3tlBxdpCrBnPQv0-41" value="" style="rounded=0;whiteSpace=wrap;html=1;fillColor=none;strokeColor=#6c8ebf;" vertex="1" parent="1">
          <mxGeometry x="1156" y="973" width="371" height="34" as="geometry" />
        </mxCell>
        <mxCell id="7F4ka3tlBxdpCrBnPQv0-42" value="&lt;font style=&quot;font-size: 20px;&quot;&gt;全局&lt;/font&gt;" style="text;html=1;align=center;verticalAlign=middle;resizable=0;points=[];autosize=1;strokeColor=none;fillColor=none;" vertex="1" parent="1">
          <mxGeometry x="1527" y="971" width="58" height="36" as="geometry" />
        </mxCell>
        <mxCell id="7F4ka3tlBxdpCrBnPQv0-43" style="edgeStyle=orthogonalEdgeStyle;rounded=0;orthogonalLoop=1;jettySize=auto;html=1;" edge="1" parent="1" source="7F4ka3tlBxdpCrBnPQv0-38">
          <mxGeometry relative="1" as="geometry">
            <mxPoint x="1055" y="813" as="sourcePoint" />
            <mxPoint x="1156" y="813" as="targetPoint" />
            <Array as="points">
              <mxPoint x="1059" y="1086" />
              <mxPoint x="1059" y="813" />
            </Array>
          </mxGeometry>
        </mxCell>
        <mxCell id="7F4ka3tlBxdpCrBnPQv0-44" style="edgeStyle=orthogonalEdgeStyle;rounded=0;orthogonalLoop=1;jettySize=auto;html=1;" edge="1" parent="1">
          <mxGeometry relative="1" as="geometry">
            <mxPoint x="1159" y="1230" as="sourcePoint" />
            <mxPoint x="1156" y="813" as="targetPoint" />
            <Array as="points">
              <mxPoint x="1163" y="1230" />
              <mxPoint x="1163" y="1242" />
              <mxPoint x="1059" y="1242" />
              <mxPoint x="1059" y="813" />
            </Array>
          </mxGeometry>
        </mxCell>
        <mxCell id="7F4ka3tlBxdpCrBnPQv0-46" style="edgeStyle=orthogonalEdgeStyle;rounded=0;orthogonalLoop=1;jettySize=auto;html=1;exitX=1;exitY=0.5;exitDx=0;exitDy=0;strokeColor=#000000;" edge="1" parent="1" source="7F4ka3tlBxdpCrBnPQv0-47">
          <mxGeometry relative="1" as="geometry">
            <mxPoint x="504" y="1851" as="targetPoint" />
          </mxGeometry>
        </mxCell>
        <mxCell id="7F4ka3tlBxdpCrBnPQv0-47" value="&lt;font style=&quot;font-size: 20px;&quot; face=&quot;Courier New&quot;&gt;head&lt;/font&gt;" style="rounded=0;whiteSpace=wrap;html=1;" vertex="1" parent="1">
          <mxGeometry x="283" y="1821" width="120" height="60" as="geometry" />
        </mxCell>
        <mxCell id="7F4ka3tlBxdpCrBnPQv0-48" value="&lt;font face=&quot;Courier New&quot; style=&quot;font-size: 20px;&quot;&gt;node1&lt;/font&gt;" style="rounded=0;whiteSpace=wrap;html=1;" vertex="1" parent="1">
          <mxGeometry x="506" y="1821" width="61" height="60" as="geometry" />
        </mxCell>
        <mxCell id="7F4ka3tlBxdpCrBnPQv0-49" value="" style="rounded=0;whiteSpace=wrap;html=1;" vertex="1" parent="1">
          <mxGeometry x="567" y="1821" width="61" height="60" as="geometry" />
        </mxCell>
        <mxCell id="7F4ka3tlBxdpCrBnPQv0-50" style="edgeStyle=orthogonalEdgeStyle;rounded=0;orthogonalLoop=1;jettySize=auto;html=1;exitX=1;exitY=0.5;exitDx=0;exitDy=0;" edge="1" parent="1">
          <mxGeometry relative="1" as="geometry">
            <mxPoint x="601" y="1850.5" as="sourcePoint" />
            <mxPoint x="702" y="1850.5" as="targetPoint" />
          </mxGeometry>
        </mxCell>
        <mxCell id="7F4ka3tlBxdpCrBnPQv0-51" value="&lt;font face=&quot;Courier New&quot; style=&quot;font-size: 20px;&quot;&gt;node2&lt;/font&gt;" style="rounded=0;whiteSpace=wrap;html=1;" vertex="1" parent="1">
          <mxGeometry x="283" y="1688" width="61" height="60" as="geometry" />
        </mxCell>
        <mxCell id="7F4ka3tlBxdpCrBnPQv0-52" value="" style="rounded=0;whiteSpace=wrap;html=1;" vertex="1" parent="1">
          <mxGeometry x="344" y="1688" width="61" height="60" as="geometry" />
        </mxCell>
        <mxCell id="7F4ka3tlBxdpCrBnPQv0-53" style="rounded=0;orthogonalLoop=1;jettySize=auto;html=1;exitX=1;exitY=0.5;exitDx=0;exitDy=0;entryX=0;entryY=0.5;entryDx=0;entryDy=0;" edge="1" parent="1" target="7F4ka3tlBxdpCrBnPQv0-48">
          <mxGeometry relative="1" as="geometry">
            <mxPoint x="378" y="1717.5" as="sourcePoint" />
            <mxPoint x="497" y="1811" as="targetPoint" />
          </mxGeometry>
        </mxCell>
        <mxCell id="7F4ka3tlBxdpCrBnPQv0-54" value="&lt;div style=&quot;font-size: 18px;&quot;&gt;&lt;div&gt;&lt;font face=&quot;Courier New&quot;&gt;main函数中的insert只执行了第一步&lt;/font&gt;&lt;/div&gt;&lt;/div&gt;" style="text;html=1;align=left;verticalAlign=middle;resizable=0;points=[];autosize=1;strokeColor=none;fillColor=none;" vertex="1" parent="1">
          <mxGeometry x="278" y="1631" width="324" height="35" as="geometry" />
        </mxCell>
        <mxCell id="7F4ka3tlBxdpCrBnPQv0-55" value="&lt;div style=&quot;font-size: 18px;&quot;&gt;&lt;font face=&quot;Courier New&quot;&gt;自定义信号捕捉函数 handler 中的 insert 操作执行完毕&lt;/font&gt;&lt;/div&gt;&lt;div style=&quot;font-size: 18px;&quot;&gt;&lt;font face=&quot;Courier New&quot;&gt;完成了完整的两个步骤&lt;/font&gt;&lt;/div&gt;" style="text;html=1;align=left;verticalAlign=middle;resizable=0;points=[];autosize=1;strokeColor=none;fillColor=none;" vertex="1" parent="1">
          <mxGeometry x="861" y="1620" width="508" height="58" as="geometry" />
        </mxCell>
        <mxCell id="7F4ka3tlBxdpCrBnPQv0-67" style="edgeStyle=orthogonalEdgeStyle;rounded=0;orthogonalLoop=1;jettySize=auto;html=1;entryX=0;entryY=0.5;entryDx=0;entryDy=0;exitX=0;exitY=0.5;exitDx=0;exitDy=0;" edge="1" parent="1" source="7F4ka3tlBxdpCrBnPQv0-57" target="7F4ka3tlBxdpCrBnPQv0-64">
          <mxGeometry relative="1" as="geometry">
            <Array as="points">
              <mxPoint x="810" y="1851" />
              <mxPoint x="810" y="1984" />
            </Array>
          </mxGeometry>
        </mxCell>
        <mxCell id="7F4ka3tlBxdpCrBnPQv0-57" value="&lt;font style=&quot;font-size: 20px;&quot; face=&quot;Courier New&quot;&gt;head&lt;/font&gt;" style="rounded=0;whiteSpace=wrap;html=1;" vertex="1" parent="1">
          <mxGeometry x="863" y="1821" width="120" height="60" as="geometry" />
        </mxCell>
        <mxCell id="7F4ka3tlBxdpCrBnPQv0-58" value="&lt;font face=&quot;Courier New&quot; style=&quot;font-size: 20px;&quot;&gt;node1&lt;/font&gt;" style="rounded=0;whiteSpace=wrap;html=1;" vertex="1" parent="1">
          <mxGeometry x="1086" y="1821" width="61" height="60" as="geometry" />
        </mxCell>
        <mxCell id="7F4ka3tlBxdpCrBnPQv0-59" value="" style="rounded=0;whiteSpace=wrap;html=1;" vertex="1" parent="1">
          <mxGeometry x="1147" y="1821" width="61" height="60" as="geometry" />
        </mxCell>
        <mxCell id="7F4ka3tlBxdpCrBnPQv0-60" style="edgeStyle=orthogonalEdgeStyle;rounded=0;orthogonalLoop=1;jettySize=auto;html=1;exitX=1;exitY=0.5;exitDx=0;exitDy=0;" edge="1" parent="1">
          <mxGeometry relative="1" as="geometry">
            <mxPoint x="1181" y="1850.5" as="sourcePoint" />
            <mxPoint x="1282" y="1850.5" as="targetPoint" />
          </mxGeometry>
        </mxCell>
        <mxCell id="7F4ka3tlBxdpCrBnPQv0-61" value="&lt;font face=&quot;Courier New&quot; style=&quot;font-size: 20px;&quot;&gt;node2&lt;/font&gt;" style="rounded=0;whiteSpace=wrap;html=1;" vertex="1" parent="1">
          <mxGeometry x="863" y="1688" width="61" height="60" as="geometry" />
        </mxCell>
        <mxCell id="7F4ka3tlBxdpCrBnPQv0-62" value="" style="rounded=0;whiteSpace=wrap;html=1;" vertex="1" parent="1">
          <mxGeometry x="924" y="1688" width="61" height="60" as="geometry" />
        </mxCell>
        <mxCell id="7F4ka3tlBxdpCrBnPQv0-63" style="rounded=0;orthogonalLoop=1;jettySize=auto;html=1;exitX=1;exitY=0.5;exitDx=0;exitDy=0;entryX=0;entryY=0.5;entryDx=0;entryDy=0;" edge="1" parent="1" target="7F4ka3tlBxdpCrBnPQv0-58">
          <mxGeometry relative="1" as="geometry">
            <mxPoint x="958" y="1717.5" as="sourcePoint" />
            <mxPoint x="1077" y="1811" as="targetPoint" />
          </mxGeometry>
        </mxCell>
        <mxCell id="7F4ka3tlBxdpCrBnPQv0-64" value="&lt;font face=&quot;Courier New&quot; style=&quot;font-size: 20px;&quot;&gt;node3&lt;/font&gt;" style="rounded=0;whiteSpace=wrap;html=1;" vertex="1" parent="1">
          <mxGeometry x="863" y="1954" width="61" height="60" as="geometry" />
        </mxCell>
        <mxCell id="7F4ka3tlBxdpCrBnPQv0-65" value="" style="rounded=0;whiteSpace=wrap;html=1;" vertex="1" parent="1">
          <mxGeometry x="924" y="1954" width="61" height="60" as="geometry" />
        </mxCell>
        <mxCell id="7F4ka3tlBxdpCrBnPQv0-66" style="rounded=0;orthogonalLoop=1;jettySize=auto;html=1;exitX=1;exitY=0.5;exitDx=0;exitDy=0;entryX=0;entryY=0.5;entryDx=0;entryDy=0;" edge="1" parent="1" target="7F4ka3tlBxdpCrBnPQv0-58">
          <mxGeometry relative="1" as="geometry">
            <mxPoint x="958" y="1983.5" as="sourcePoint" />
            <mxPoint x="1059" y="1983.5" as="targetPoint" />
          </mxGeometry>
        </mxCell>
        <mxCell id="7F4ka3tlBxdpCrBnPQv0-68" value="&lt;div style=&quot;font-size: 18px;&quot;&gt;&lt;font face=&quot;Courier New&quot;&gt;切换到用户态后，更新头结点&lt;/font&gt;&lt;/div&gt;" style="text;html=1;align=left;verticalAlign=middle;resizable=0;points=[];autosize=1;strokeColor=none;fillColor=none;" vertex="1" parent="1">
          <mxGeometry x="1081" y="190.5" width="252" height="35" as="geometry" />
        </mxCell>
        <mxCell id="7F4ka3tlBxdpCrBnPQv0-80" style="edgeStyle=orthogonalEdgeStyle;rounded=0;orthogonalLoop=1;jettySize=auto;html=1;entryX=0;entryY=0.5;entryDx=0;entryDy=0;exitX=0;exitY=0.5;exitDx=0;exitDy=0;" edge="1" parent="1" source="7F4ka3tlBxdpCrBnPQv0-70" target="7F4ka3tlBxdpCrBnPQv0-74">
          <mxGeometry relative="1" as="geometry">
            <Array as="points">
              <mxPoint x="1048" y="409.5" />
              <mxPoint x="1048" y="276.5" />
            </Array>
          </mxGeometry>
        </mxCell>
        <mxCell id="7F4ka3tlBxdpCrBnPQv0-70" value="&lt;font style=&quot;font-size: 20px;&quot; face=&quot;Courier New&quot;&gt;head&lt;/font&gt;" style="rounded=0;whiteSpace=wrap;html=1;" vertex="1" parent="1">
          <mxGeometry x="1083" y="379.5" width="120" height="60" as="geometry" />
        </mxCell>
        <mxCell id="7F4ka3tlBxdpCrBnPQv0-71" value="&lt;font face=&quot;Courier New&quot; style=&quot;font-size: 20px;&quot;&gt;node1&lt;/font&gt;" style="rounded=0;whiteSpace=wrap;html=1;" vertex="1" parent="1">
          <mxGeometry x="1306" y="379.5" width="61" height="60" as="geometry" />
        </mxCell>
        <mxCell id="7F4ka3tlBxdpCrBnPQv0-72" value="" style="rounded=0;whiteSpace=wrap;html=1;" vertex="1" parent="1">
          <mxGeometry x="1367" y="379.5" width="61" height="60" as="geometry" />
        </mxCell>
        <mxCell id="7F4ka3tlBxdpCrBnPQv0-73" style="edgeStyle=orthogonalEdgeStyle;rounded=0;orthogonalLoop=1;jettySize=auto;html=1;exitX=1;exitY=0.5;exitDx=0;exitDy=0;" edge="1" parent="1">
          <mxGeometry relative="1" as="geometry">
            <mxPoint x="1401" y="409" as="sourcePoint" />
            <mxPoint x="1502" y="409" as="targetPoint" />
          </mxGeometry>
        </mxCell>
        <mxCell id="7F4ka3tlBxdpCrBnPQv0-74" value="&lt;font face=&quot;Courier New&quot; style=&quot;font-size: 20px;&quot;&gt;node2&lt;/font&gt;" style="rounded=0;whiteSpace=wrap;html=1;" vertex="1" parent="1">
          <mxGeometry x="1083" y="246.5" width="61" height="60" as="geometry" />
        </mxCell>
        <mxCell id="7F4ka3tlBxdpCrBnPQv0-75" value="" style="rounded=0;whiteSpace=wrap;html=1;" vertex="1" parent="1">
          <mxGeometry x="1144" y="246.5" width="61" height="60" as="geometry" />
        </mxCell>
        <mxCell id="7F4ka3tlBxdpCrBnPQv0-76" style="rounded=0;orthogonalLoop=1;jettySize=auto;html=1;exitX=1;exitY=0.5;exitDx=0;exitDy=0;entryX=0;entryY=0.5;entryDx=0;entryDy=0;" edge="1" parent="1" target="7F4ka3tlBxdpCrBnPQv0-71">
          <mxGeometry relative="1" as="geometry">
            <mxPoint x="1178" y="276" as="sourcePoint" />
            <mxPoint x="1297" y="369.5" as="targetPoint" />
          </mxGeometry>
        </mxCell>
        <mxCell id="7F4ka3tlBxdpCrBnPQv0-77" value="&lt;font face=&quot;Courier New&quot; style=&quot;font-size: 20px;&quot;&gt;node3&lt;/font&gt;" style="rounded=0;whiteSpace=wrap;html=1;" vertex="1" parent="1">
          <mxGeometry x="1083" y="512.5" width="61" height="60" as="geometry" />
        </mxCell>
        <mxCell id="7F4ka3tlBxdpCrBnPQv0-78" value="" style="rounded=0;whiteSpace=wrap;html=1;" vertex="1" parent="1">
          <mxGeometry x="1144" y="512.5" width="61" height="60" as="geometry" />
        </mxCell>
        <mxCell id="7F4ka3tlBxdpCrBnPQv0-79" style="rounded=0;orthogonalLoop=1;jettySize=auto;html=1;exitX=1;exitY=0.5;exitDx=0;exitDy=0;entryX=0;entryY=0.5;entryDx=0;entryDy=0;" edge="1" parent="1" target="7F4ka3tlBxdpCrBnPQv0-71">
          <mxGeometry relative="1" as="geometry">
            <mxPoint x="1178" y="542" as="sourcePoint" />
            <mxPoint x="1279" y="542" as="targetPoint" />
          </mxGeometry>
        </mxCell>
        <mxCell id="7F4ka3tlBxdpCrBnPQv0-81" value="&lt;div style=&quot;font-size: 18px;&quot;&gt;&lt;font color=&quot;#ff0000&quot; face=&quot;Courier New&quot;&gt;此时node3成为&quot;第三者&quot;&lt;/font&gt;&lt;/div&gt;" style="text;html=1;align=left;verticalAlign=middle;resizable=0;points=[];autosize=1;strokeColor=none;fillColor=none;" vertex="1" parent="1">
          <mxGeometry x="898" y="472" width="220" height="35" as="geometry" />
        </mxCell>
      </root>
    </mxGraphModel>
  </diagram>
</mxfile>
